<svg xmlns="http://www.w3.org/2000/svg" xmlns:svg="http://www.w3.org/2000/svg" id="svg4477" width="985.928" height="544.214" version="1.0" viewBox="0 0 260.86 143.99"><metadata id="metadata4549"/><defs id="defs4479"><clipPath id="clipEmfPath1" clipPathUnits="userSpaceOnUse"><path id="path4482" d="m 15.1408,17.0896 923.4402,0 0,510.7404 -923.4402,0 z"/></clipPath></defs><path id="path4485" fill="#ffc000" fill-opacity="1" fill-rule="evenodd" stroke="none" d="m 95.43627,0.45559165 0,95.86912035 75.94236,0 0,-95.86912035 -75.94236,0 z"/><path id="path4487" fill="#ffc000" fill-opacity="1" fill-rule="evenodd" stroke="none" d="m 184.19801,78.598046 0,65.661574 75.98467,0 0,-65.661574 -75.98467,0 z"/><path id="path4489" fill="#fff" fill-opacity="1" fill-rule="evenodd" stroke="none" d="m 99.455706,3.9248366 0,88.0000244 67.946134,0 0,-88.0000244 -67.946134,0 z"/><path id="path4491" fill="none" stroke="#000" stroke-dasharray="none" stroke-linecap="butt" stroke-linejoin="miter" stroke-miterlimit="8" stroke-opacity="1" stroke-width="7.495" d="m 368.402,29.9069 240.754,0 0,311.8111 -240.754,0 z" clip-path="url(#clipEmfPath1)" transform="matrix(0.28222222,0,0,0.28222222,-4.5155553,-4.5155553)"/><path id="path4493" fill="#fff" fill-opacity="1" fill-rule="evenodd" stroke="none" d="m 103.94022,8.1556034 0,79.3691316 27.16163,0 0,-79.3691316 -27.16163,0 z"/><path id="path4495" fill="none" stroke="#000" stroke-dasharray="none" stroke-linecap="butt" stroke-linejoin="miter" stroke-miterlimit="8" stroke-opacity="1" stroke-width="7.495" d="m 384.292,44.8978 96.242,0 0,281.2292 -96.242,0 z" clip-path="url(#clipEmfPath1)" transform="matrix(0.28222222,0,0,0.28222222,-4.5155553,-4.5155553)"/><path id="path4497" fill="#fff" fill-opacity="1" fill-rule="evenodd" stroke="none" d="m 135.54403,8.1556034 0,79.3691316 27.20397,0 0,-79.3691316 -27.20397,0 z"/><path id="path4499" fill="none" stroke="#000" stroke-dasharray="none" stroke-linecap="butt" stroke-linejoin="miter" stroke-miterlimit="8" stroke-opacity="1" stroke-width="7.495" d="m 496.274,44.8978 96.392,0 0,281.2292 -96.392,0 z" clip-path="url(#clipEmfPath1)" transform="matrix(0.28222222,0,0,0.28222222,-4.5155553,-4.5155553)"/><path id="path4501" fill="#fff" fill-opacity="1" fill-rule="evenodd" stroke="none" d="m 187.87876,82.447839 0,52.123091 67.94612,0 0,-52.123091 -67.94612,0 z"/><path id="path4503" fill="none" stroke="#000" stroke-dasharray="none" stroke-linecap="butt" stroke-linejoin="miter" stroke-miterlimit="8" stroke-opacity="1" stroke-width="7.495" d="m 681.712,308.138 240.754,0 0,184.688 -240.754,0 z" clip-path="url(#clipEmfPath1)" transform="matrix(0.28222222,0,0,0.28222222,-4.5155553,-4.5155553)"/><path id="path4505" fill="#fff" fill-opacity="1" fill-rule="evenodd" stroke="none" d="m 192.10955,87.524735 0,42.223295 27.20368,0 0,-42.223295 -27.20368,0 z"/><path id="path4507" fill="none" stroke="#000" stroke-dasharray="none" stroke-linecap="butt" stroke-linejoin="miter" stroke-miterlimit="8" stroke-opacity="1" stroke-width="2.115" d="m 192.10955,87.524735 27.20368,0 0,42.223295 -27.20368,0 z"/><path id="path4509" fill="#fff" fill-opacity="1" fill-rule="evenodd" stroke="none" d="m 223.96708,87.524735 0,42.223295 27.20396,0 0,-42.223295 -27.20396,0 z"/><path id="path4511" fill="none" stroke="#000" stroke-dasharray="none" stroke-linecap="butt" stroke-linejoin="miter" stroke-miterlimit="8" stroke-opacity="1" stroke-width="2.115" d="m 223.96708,87.524735 27.20396,0 0,42.223295 -27.20396,0 z"/><path id="path4513" fill="#ffc000" fill-opacity="1" fill-rule="nonzero" stroke="#ffc000" stroke-dasharray="none" stroke-linecap="butt" stroke-linejoin="round" stroke-miterlimit="10" stroke-opacity="1" stroke-width=".011" d="m 134.23254,96.314272 0,6.346068 -0.80376,-0.80376 44.40174,0 -0.80377,0.80376 0,-31.212394 45.99911,0 0,3.130691 -1.60782,0 0,-2.326922 0.80406,0.803769 -44.39158,0 0.80405,-0.803769 0,31.212685 -46.00985,0 0,-7.150128 1.60782,0 z m 90.40086,-22.539404 -2.4113,4.823178 -2.41159,-4.823178 4.82289,0 z"/><path id="path4515" fill="#ffc000" fill-opacity="1" fill-rule="evenodd" stroke="none" d="m -0.0944031,0.45559165 0,137.33069835 75.9845271,0 0,-137.33069835 -75.9845271,0 z"/><path id="path4517" fill="#fff" fill-opacity="1" fill-rule="evenodd" stroke="none" d="m 3.9248366,3.9248366 0,130.0116534 67.9461604,0 0,-130.0116534 -67.9461604,0 z"/><path id="path4519" fill="none" stroke="#000" stroke-dasharray="none" stroke-linecap="butt" stroke-linejoin="miter" stroke-miterlimit="8" stroke-opacity="1" stroke-width="7.495" d="m 29.9069,29.9069 240.7541,0 0,460.6711 -240.7541,0 z" clip-path="url(#clipEmfPath1)" transform="matrix(0.28222222,0,0,0.28222222,-4.5155553,-4.5155553)"/><path id="path4521" fill="#fff" fill-opacity="1" fill-rule="evenodd" stroke="none" d="m 8.1556034,8.1556034 0,121.5924266 27.2037406,0 0,-121.5924266 -27.2037406,0 z"/><path id="path4523" fill="none" stroke="#000" stroke-dasharray="none" stroke-linecap="butt" stroke-linejoin="miter" stroke-miterlimit="8" stroke-opacity="1" stroke-width="7.495" d="m 44.8978,44.8978 96.3912,0 0,430.8392 -96.3912,0 z" clip-path="url(#clipEmfPath1)" transform="matrix(0.28222222,0,0,0.28222222,-4.5155553,-4.5155553)"/><path id="path4525" fill="#fff" fill-opacity="1" fill-rule="evenodd" stroke="none" d="m 40.013188,8.1556034 0,121.5924266 27.161631,0 0,-121.5924266 -27.161631,0 z"/><path id="path4527" fill="none" stroke="#000" stroke-dasharray="none" stroke-linecap="butt" stroke-linejoin="miter" stroke-miterlimit="8" stroke-opacity="1" stroke-width="7.495" d="m 157.779,44.8978 96.242,0 0,430.8392 -96.242,0 z" clip-path="url(#clipEmfPath1)" transform="matrix(0.28222222,0,0,0.28222222,-4.5155553,-4.5155553)"/><path id="path4529" fill="#d0cece" fill-opacity="1" fill-rule="evenodd" stroke="none" d="m 12.132511,12.259455 0,112.919115 19.54609,0 0,-112.919115 -19.54609,0 z"/><path id="path4531" fill="#d0cece" fill-opacity="1" fill-rule="evenodd" stroke="none" d="m 43.82093,12.259455 0,40.573113 19.546147,0 0,-40.573113 -19.546147,0 z"/><path id="path4533" fill="#fff" fill-opacity="1" fill-rule="evenodd" stroke="none" d="m 193.17088,85.028761 0,43.323119 25.06097,0 0,-43.323119 -25.06097,0 z"/><path id="path4535" fill="#d0cece" fill-opacity="1" fill-rule="evenodd" stroke="none" d="m 195.57862,86.382581 0,38.415279 19.50382,0 0,-38.415279 -19.50382,0 z"/><path id="path4537" fill="#fff" fill-opacity="1" fill-rule="evenodd" stroke="none" d="m 225.03197,85.028761 0,43.323119 25.03184,0 0,-43.323119 -25.03184,0 z"/><path id="path4539" fill="#fff" fill-opacity="1" fill-rule="evenodd" stroke="none" d="m 136.56659,47.247955 0,43.323086 25.14948,0 0,-43.323086 -25.14948,0 z"/><path id="path4541" fill="#fff" fill-opacity="1" fill-rule="evenodd" stroke="none" d="m 105.00512,45.471084 0,43.323086 24.97302,0 0,-43.323086 -24.97302,0 z"/><path id="path4543" fill="#d0cece" fill-opacity="1" fill-rule="evenodd" stroke="none" d="m 107.74796,12.259455 0,74.123126 19.54615,0 0,-74.123126 -19.54615,0 z"/><path id="path4545" fill="#d0cece" fill-opacity="1" fill-rule="evenodd" stroke="none" d="m 139.39411,12.259455 0,40.573113 19.50381,0 0,-40.573113 -19.50381,0 z"/></svg>