<svg xmlns="http://www.w3.org/2000/svg" xmlns:svg="http://www.w3.org/2000/svg" id="svg3336" width="985.928" height="544.214" version="1.0" viewBox="0 0 260.86 143.99"><metadata id="metadata3498"/><defs id="defs3338"><clipPath id="clipEmfPath1" clipPathUnits="userSpaceOnUse"><path id="path3341" d="m 15.1408,17.0896 923.4402,0 0,510.7404 -923.4402,0 z"/></clipPath></defs><path id="path3344" fill="#ffc000" fill-opacity="1" fill-rule="evenodd" stroke="none" d="m 0.15,0.0359491 0,137.3307309 75.984504,0 0,-137.3307309 -75.984504,0 z"/><path id="path3346" fill="#fff" fill-opacity="1" fill-rule="evenodd" stroke="none" d="m 4.1692385,3.5051939 0,130.0116861 67.9461395,0 0,-130.0116861 -67.9461395,0 z"/><path id="path3348" fill="none" stroke="#000" stroke-dasharray="none" stroke-linecap="butt" stroke-linejoin="miter" stroke-miterlimit="8" stroke-opacity="1" stroke-width="7.495" d="m 29.9069,29.9069 240.7541,0 0,460.6711 -240.7541,0 z" clip-path="url(#clipEmfPath1)" transform="matrix(0.28222213,0,0,0.28222222,-4.2711509,-4.935198)"/><path id="path3350" fill="#000" fill-opacity="1" fill-rule="evenodd" stroke="none" d="m 8.400004,7.7359607 0,11.4653913 27.203732,0 0,-11.4653913 -27.203732,0 z"/><path id="path3352" fill="none" stroke="#000" stroke-dasharray="none" stroke-linecap="butt" stroke-linejoin="miter" stroke-miterlimit="8" stroke-opacity="1" stroke-width="7.495" d="m 44.8978,44.8978 96.3912,0 0,40.6254 -96.3912,0 z" clip-path="url(#clipEmfPath1)" transform="matrix(0.28222213,0,0,0.28222222,-4.2711509,-4.935198)"/><path id="path3354" fill="#fff" fill-opacity="1" fill-rule="evenodd" stroke="none" d="m 8.400004,23.432088 0,11.465278 27.203732,0 0,-11.465278 -27.203732,0 z"/><path id="path3356" fill="none" stroke="#000" stroke-dasharray="none" stroke-linecap="butt" stroke-linejoin="miter" stroke-miterlimit="8" stroke-opacity="1" stroke-width="7.495" d="m 44.8978,100.514 96.3912,0 0,40.625 -96.3912,0 z" clip-path="url(#clipEmfPath1)" transform="matrix(0.28222213,0,0,0.28222222,-4.2711509,-4.935198)"/><path id="path3358" fill="#fff" fill-opacity="1" fill-rule="evenodd" stroke="none" d="m 8.400004,39.12816 0,11.46556 27.203732,0 0,-11.46556 -27.203732,0 z"/><path id="path3360" fill="none" stroke="#000" stroke-dasharray="none" stroke-linecap="butt" stroke-linejoin="miter" stroke-miterlimit="8" stroke-opacity="1" stroke-width="7.495" d="m 44.8978,156.13 96.3912,0 0,40.626 -96.3912,0 z" clip-path="url(#clipEmfPath1)" transform="matrix(0.28222213,0,0,0.28222222,-4.2711509,-4.935198)"/><path id="path3362" fill="#fff" fill-opacity="1" fill-rule="evenodd" stroke="none" d="m 8.400004,54.824513 0,11.465278 27.203732,0 0,-11.465278 -27.203732,0 z"/><path id="path3364" fill="none" stroke="#000" stroke-dasharray="none" stroke-linecap="butt" stroke-linejoin="miter" stroke-miterlimit="8" stroke-opacity="1" stroke-width="7.495" d="m 44.8978,211.747 96.3912,0 0,40.625 -96.3912,0 z" clip-path="url(#clipEmfPath1)" transform="matrix(0.28222213,0,0,0.28222222,-4.2711509,-4.935198)"/><path id="path3366" fill="#fff" fill-opacity="1" fill-rule="evenodd" stroke="none" d="m 8.400004,70.520584 0,11.507611 27.203732,0 0,-11.507611 -27.203732,0 z"/><path id="path3368" fill="none" stroke="#000" stroke-dasharray="none" stroke-linecap="butt" stroke-linejoin="miter" stroke-miterlimit="8" stroke-opacity="1" stroke-width="7.495" d="m 44.8978,267.363 96.3912,0 0,40.775 -96.3912,0 z" clip-path="url(#clipEmfPath1)" transform="matrix(0.28222213,0,0,0.28222222,-4.2711509,-4.935198)"/><path id="path3370" fill="#fff" fill-opacity="1" fill-rule="evenodd" stroke="none" d="m 8.400004,86.258988 0,11.465572 27.203732,0 0,-11.465572 -27.203732,0 z"/><path id="path3372" fill="none" stroke="#000" stroke-dasharray="none" stroke-linecap="butt" stroke-linejoin="miter" stroke-miterlimit="8" stroke-opacity="1" stroke-width="7.495" d="m 44.8978,323.129 96.3912,0 0,40.626 -96.3912,0 z" clip-path="url(#clipEmfPath1)" transform="matrix(0.28222213,0,0,0.28222222,-4.2711509,-4.935198)"/><path id="path3374" fill="#fff" fill-opacity="1" fill-rule="evenodd" stroke="none" d="m 8.400004,101.95513 0,11.46556 27.203732,0 0,-11.46556 -27.203732,0 z"/><path id="path3376" fill="none" stroke="#000" stroke-dasharray="none" stroke-linecap="butt" stroke-linejoin="miter" stroke-miterlimit="8" stroke-opacity="1" stroke-width="7.495" d="m 44.8978,378.745 96.3912,0 0,40.626 -96.3912,0 z" clip-path="url(#clipEmfPath1)" transform="matrix(0.28222213,0,0,0.28222222,-4.2711509,-4.935198)"/><path id="path3378" fill="#000" fill-opacity="1" fill-rule="evenodd" stroke="none" d="m 8.400004,117.65148 0,11.46528 59.019198,0 0,-11.46528 -59.019198,0 z"/><path id="path3380" fill="none" stroke="#000" stroke-dasharray="none" stroke-linecap="butt" stroke-linejoin="miter" stroke-miterlimit="8" stroke-opacity="1" stroke-width="7.495" d="m 44.8978,434.362 209.1232,0 0,40.625 -209.1232,0 z" clip-path="url(#clipEmfPath1)" transform="matrix(0.28222213,0,0,0.28222222,-4.2711509,-4.935198)"/><path id="path3382" fill="#ffc000" fill-opacity="1" fill-rule="evenodd" stroke="none" d="m 95.680644,0.0359491 0,95.8691189 75.942336,0 0,-95.8691189 -75.942336,0 z"/><path id="path3384" fill="#000" fill-opacity="1" fill-rule="evenodd" stroke="none" d="m 40.257579,7.7359607 0,11.4653913 27.161623,0 0,-11.4653913 -27.161623,0 z"/><path id="path3386" fill="none" stroke="#000" stroke-dasharray="none" stroke-linecap="butt" stroke-linejoin="miter" stroke-miterlimit="8" stroke-opacity="1" stroke-width="7.495" d="m 157.779,44.8978 96.242,0 0,40.6254 -96.242,0 z" clip-path="url(#clipEmfPath1)" transform="matrix(0.28222213,0,0,0.28222222,-4.2711509,-4.935198)"/><path id="path3388" fill="#fff" fill-opacity="1" fill-rule="evenodd" stroke="none" d="m 40.257579,23.432088 0,11.465278 27.161623,0 0,-11.465278 -27.161623,0 z"/><path id="path3390" fill="none" stroke="#000" stroke-dasharray="none" stroke-linecap="butt" stroke-linejoin="miter" stroke-miterlimit="8" stroke-opacity="1" stroke-width="2.115" d="m 40.257579,23.432088 27.161623,0 0,11.465278 -27.161623,0 z"/><path id="path3392" fill="#fff" fill-opacity="1" fill-rule="evenodd" stroke="none" d="m 40.257579,39.12816 0,11.46556 27.161623,0 0,-11.46556 -27.161623,0 z"/><path id="path3394" fill="none" stroke="#000" stroke-dasharray="none" stroke-linecap="butt" stroke-linejoin="miter" stroke-miterlimit="8" stroke-opacity="1" stroke-width="2.115" d="m 40.257579,39.12816 27.161623,0 0,11.46556 -27.161623,0 z"/><path id="path3396" fill="#fff" fill-opacity="1" fill-rule="evenodd" stroke="none" d="m 40.257579,54.824513 0,11.465278 27.161623,0 0,-11.465278 -27.161623,0 z"/><path id="path3398" fill="none" stroke="#000" stroke-dasharray="none" stroke-linecap="butt" stroke-linejoin="miter" stroke-miterlimit="8" stroke-opacity="1" stroke-width="2.115" d="m 40.257579,54.824513 27.161623,0 0,11.465278 -27.161623,0 z"/><path id="path3400" fill="#fff" fill-opacity="1" fill-rule="evenodd" stroke="none" d="m 40.257579,70.520584 0,11.507611 27.161623,0 0,-11.507611 -27.161623,0 z"/><path id="path3402" fill="none" stroke="#000" stroke-dasharray="none" stroke-linecap="butt" stroke-linejoin="miter" stroke-miterlimit="8" stroke-opacity="1" stroke-width="2.115" d="m 40.257579,70.520584 27.161623,0 0,11.507611 -27.161623,0 z"/><path id="path3404" fill="#fff" fill-opacity="1" fill-rule="evenodd" stroke="none" d="m 40.257579,86.258988 0,11.465572 27.161623,0 0,-11.465572 -27.161623,0 z"/><path id="path3406" fill="none" stroke="#000" stroke-dasharray="none" stroke-linecap="butt" stroke-linejoin="miter" stroke-miterlimit="8" stroke-opacity="1" stroke-width="2.115" d="m 40.257579,86.258988 27.161623,0 0,11.465572 -27.161623,0 z"/><path id="path3408" fill="#fff" fill-opacity="1" fill-rule="evenodd" stroke="none" d="m 40.257579,101.95513 0,11.46556 27.161623,0 0,-11.46556 -27.161623,0 z"/><path id="path3410" fill="none" stroke="#000" stroke-dasharray="none" stroke-linecap="butt" stroke-linejoin="miter" stroke-miterlimit="8" stroke-opacity="1" stroke-width="2.115" d="m 40.257579,101.95513 27.161623,0 0,11.46556 -27.161623,0 z"/><path id="path3412" fill="#ffc000" fill-opacity="1" fill-rule="evenodd" stroke="none" d="m 183.87791,47.970464 0,95.869546 75.98465,0 0,-95.869546 -75.98465,0 z"/><path id="path3414" fill="#fff" fill-opacity="1" fill-rule="evenodd" stroke="none" d="m 99.700076,3.5051939 0,88.0000231 67.946114,0 0,-88.0000231 -67.946114,0 z"/><path id="path3416" fill="none" stroke="#000" stroke-dasharray="none" stroke-linecap="butt" stroke-linejoin="miter" stroke-miterlimit="8" stroke-opacity="1" stroke-width="7.495" d="m 368.402,29.9069 240.754,0 0,311.8111 -240.754,0 z" clip-path="url(#clipEmfPath1)" transform="matrix(0.28222213,0,0,0.28222222,-4.2711509,-4.935198)"/><path id="path3418" fill="#000" fill-opacity="1" fill-rule="evenodd" stroke="none" d="m 103.93087,7.7359607 0,11.4653913 27.20368,0 0,-11.4653913 -27.20368,0 z"/><path id="path3420" fill="none" stroke="#000" stroke-dasharray="none" stroke-linecap="butt" stroke-linejoin="miter" stroke-miterlimit="8" stroke-opacity="1" stroke-width="7.495" d="m 383.393,44.8978 96.391,0 0,40.6254 -96.391,0 z" clip-path="url(#clipEmfPath1)" transform="matrix(0.28222213,0,0,0.28222222,-4.2711509,-4.935198)"/><path id="path3422" fill="#fff" fill-opacity="1" fill-rule="evenodd" stroke="none" d="m 103.93087,23.432088 0,11.507612 27.20368,0 0,-11.507612 -27.20368,0 z"/><path id="path3424" fill="none" stroke="#000" stroke-dasharray="none" stroke-linecap="butt" stroke-linejoin="miter" stroke-miterlimit="8" stroke-opacity="1" stroke-width="2.115" d="m 103.93087,23.432088 27.20368,0 0,11.507612 -27.20368,0 z"/><path id="path3426" fill="#fff" fill-opacity="1" fill-rule="evenodd" stroke="none" d="m 103.93087,39.170493 0,11.46556 27.20368,0 0,-11.46556 -27.20368,0 z"/><path id="path3428" fill="none" stroke="#000" stroke-dasharray="none" stroke-linecap="butt" stroke-linejoin="miter" stroke-miterlimit="8" stroke-opacity="1" stroke-width="2.115" d="m 103.93087,39.170493 27.20368,0 0,11.46556 -27.20368,0 z"/><path id="path3430" fill="#fff" fill-opacity="1" fill-rule="evenodd" stroke="none" d="m 103.93087,54.866846 0,11.465278 27.20368,0 0,-11.465278 -27.20368,0 z"/><path id="path3432" fill="none" stroke="#000" stroke-dasharray="none" stroke-linecap="butt" stroke-linejoin="miter" stroke-miterlimit="8" stroke-opacity="1" stroke-width="2.115" d="m 103.93087,54.866846 27.20368,0 0,11.465278 -27.20368,0 z"/><path id="path3434" fill="#000" fill-opacity="1" fill-rule="evenodd" stroke="none" d="m 103.93087,70.562917 0,11.465278 59.06148,0 0,-11.465278 -59.06148,0 z"/><path id="path3436" fill="none" stroke="#000" stroke-dasharray="none" stroke-linecap="butt" stroke-linejoin="miter" stroke-miterlimit="8" stroke-opacity="1" stroke-width="2.115" d="m 103.93087,70.562917 59.06148,0 0,11.465278 -59.06148,0 z"/><path id="path3438" fill="#000" fill-opacity="1" fill-rule="evenodd" stroke="none" d="m 135.78839,7.7359607 0,11.4653913 27.20396,0 0,-11.4653913 -27.20396,0 z"/><path id="path3440" fill="none" stroke="#000" stroke-dasharray="none" stroke-linecap="butt" stroke-linejoin="miter" stroke-miterlimit="8" stroke-opacity="1" stroke-width="7.495" d="m 496.274,44.8978 96.392,0 0,40.6254 -96.392,0 z" clip-path="url(#clipEmfPath1)" transform="matrix(0.28222213,0,0,0.28222222,-4.2711509,-4.935198)"/><path id="path3442" fill="#fff" fill-opacity="1" fill-rule="evenodd" stroke="none" d="m 135.78839,23.432088 0,11.507612 27.20396,0 0,-11.507612 -27.20396,0 z"/><path id="path3444" fill="none" stroke="#000" stroke-dasharray="none" stroke-linecap="butt" stroke-linejoin="miter" stroke-miterlimit="8" stroke-opacity="1" stroke-width="2.115" d="m 135.78839,23.432088 27.20396,0 0,11.507612 -27.20396,0 z"/><path id="path3446" fill="#fff" fill-opacity="1" fill-rule="evenodd" stroke="none" d="m 135.78839,39.170493 0,11.46556 27.20396,0 0,-11.46556 -27.20396,0 z"/><path id="path3448" fill="none" stroke="#000" stroke-dasharray="none" stroke-linecap="butt" stroke-linejoin="miter" stroke-miterlimit="8" stroke-opacity="1" stroke-width="2.115" d="m 135.78839,39.170493 27.20396,0 0,11.46556 -27.20396,0 z"/><path id="path3450" fill="#fff" fill-opacity="1" fill-rule="evenodd" stroke="none" d="m 135.78839,54.866846 0,11.465278 27.20396,0 0,-11.465278 -27.20396,0 z"/><path id="path3452" fill="none" stroke="#000" stroke-dasharray="none" stroke-linecap="butt" stroke-linejoin="miter" stroke-miterlimit="8" stroke-opacity="1" stroke-width="2.115" d="m 135.78839,54.866846 27.20396,0 0,11.465278 -27.20396,0 z"/><path id="path3454" fill="#fff" fill-opacity="1" fill-rule="evenodd" stroke="none" d="m 188.1231,51.439822 0,82.711498 67.9461,0 0,-82.711498 -67.9461,0 z"/><path id="path3456" fill="none" stroke="#000" stroke-dasharray="none" stroke-linecap="butt" stroke-linejoin="miter" stroke-miterlimit="8" stroke-opacity="1" stroke-width="7.495" d="m 681.712,199.754 240.754,0 0,293.072 -240.754,0 z" clip-path="url(#clipEmfPath1)" transform="matrix(0.28222213,0,0,0.28222222,-4.2711509,-4.935198)"/><path id="path3458" fill="#000" fill-opacity="1" fill-rule="evenodd" stroke="none" d="m 192.35389,55.670615 0,11.507611 27.20367,0 0,-11.507611 -27.20367,0 z"/><path id="path3460" fill="none" stroke="#000" stroke-dasharray="none" stroke-linecap="butt" stroke-linejoin="miter" stroke-miterlimit="8" stroke-opacity="1" stroke-width="2.115" d="m 192.35389,55.670615 27.20367,0 0,11.507611 -27.20367,0 z"/><path id="path3462" fill="#fff" fill-opacity="1" fill-rule="evenodd" stroke="none" d="m 192.35389,71.40902 0,11.465277 27.20367,0 0,-11.465277 -27.20367,0 z"/><path id="path3464" fill="none" stroke="#000" stroke-dasharray="none" stroke-linecap="butt" stroke-linejoin="miter" stroke-miterlimit="8" stroke-opacity="1" stroke-width="2.115" d="m 192.35389,71.40902 27.20367,0 0,11.465277 -27.20367,0 z"/><path id="path3466" fill="#fff" fill-opacity="1" fill-rule="evenodd" stroke="none" d="m 192.35389,87.105091 0,11.465587 27.20367,0 0,-11.465587 -27.20367,0 z"/><path id="path3468" fill="none" stroke="#000" stroke-dasharray="none" stroke-linecap="butt" stroke-linejoin="miter" stroke-miterlimit="8" stroke-opacity="1" stroke-width="2.115" d="m 192.35389,87.105091 27.20367,0 0,11.465587 -27.20367,0 z"/><path id="path3470" fill="#fff" fill-opacity="1" fill-rule="evenodd" stroke="none" d="m 192.35389,102.80151 0,11.46528 27.20367,0 0,-11.46528 -27.20367,0 z"/><path id="path3472" fill="none" stroke="#000" stroke-dasharray="none" stroke-linecap="butt" stroke-linejoin="miter" stroke-miterlimit="8" stroke-opacity="1" stroke-width="2.115" d="m 192.35389,102.80151 27.20367,0 0,11.46528 -27.20367,0 z"/><path id="path3474" fill="#000" fill-opacity="1" fill-rule="evenodd" stroke="none" d="m 192.35389,118.49758 0,11.46528 59.06147,0 0,-11.46528 -59.06147,0 z"/><path id="path3476" fill="none" stroke="#000" stroke-dasharray="none" stroke-linecap="butt" stroke-linejoin="miter" stroke-miterlimit="8" stroke-opacity="1" stroke-width="2.115" d="m 192.35389,118.49758 59.06147,0 0,11.46528 -59.06147,0 z"/><path id="path3478" fill="#000" fill-opacity="1" fill-rule="evenodd" stroke="none" d="m 224.21141,55.670615 0,11.507611 27.20395,0 0,-11.507611 -27.20395,0 z"/><path id="path3480" fill="none" stroke="#000" stroke-dasharray="none" stroke-linecap="butt" stroke-linejoin="miter" stroke-miterlimit="8" stroke-opacity="1" stroke-width="2.115" d="m 224.21141,55.670615 27.20395,0 0,11.507611 -27.20395,0 z"/><path id="path3482" fill="#fff" fill-opacity="1" fill-rule="evenodd" stroke="none" d="m 224.21141,71.40902 0,11.465277 27.20395,0 0,-11.465277 -27.20395,0 z"/><path id="path3484" fill="none" stroke="#000" stroke-dasharray="none" stroke-linecap="butt" stroke-linejoin="miter" stroke-miterlimit="8" stroke-opacity="1" stroke-width="2.115" d="m 224.21141,71.40902 27.20395,0 0,11.465277 -27.20395,0 z"/><path id="path3486" fill="#fff" fill-opacity="1" fill-rule="evenodd" stroke="none" d="m 224.21141,87.105091 0,11.465587 27.20395,0 0,-11.465587 -27.20395,0 z"/><path id="path3488" fill="none" stroke="#000" stroke-dasharray="none" stroke-linecap="butt" stroke-linejoin="miter" stroke-miterlimit="8" stroke-opacity="1" stroke-width="2.115" d="m 224.21141,87.105091 27.20395,0 0,11.465587 -27.20395,0 z"/><path id="path3490" fill="#fff" fill-opacity="1" fill-rule="evenodd" stroke="none" d="m 224.21141,102.80151 0,11.46528 27.20395,0 0,-11.46528 -27.20395,0 z"/><path id="path3492" fill="none" stroke="#000" stroke-dasharray="none" stroke-linecap="butt" stroke-linejoin="miter" stroke-miterlimit="8" stroke-opacity="1" stroke-width="2.115" d="m 224.21141,102.80151 27.20395,0 0,11.46528 -27.20395,0 z"/><path id="path3494" fill="#ffc000" fill-opacity="1" fill-rule="nonzero" stroke="#ffc000" stroke-dasharray="none" stroke-linecap="butt" stroke-linejoin="round" stroke-miterlimit="10" stroke-opacity="1" stroke-width=".011" d="m 134.4769,95.915788 0,6.346112 -0.80376,-0.80377 44.40173,0 -0.80377,0.80377 0,-61.441254 45.99909,0 0,3.130691 -1.60782,0 0,-2.326922 0.80406,0.803769 -44.39156,0 0.80405,-0.803769 0,61.441535 -46.00984,0 0,-7.150162 1.60782,0 z m 90.40083,-52.76822 -2.4113,4.822896 -2.41159,-4.822896 4.82289,0 z"/><rect id="rect3500" width="3.178" height="144.382" x="84.141" y=".062" fill="#00f" fill-rule="evenodd" stroke="#00f" stroke-linecap="butt" stroke-linejoin="miter" stroke-opacity="1" stroke-width=".282"/></svg>