<svg xmlns="http://www.w3.org/2000/svg" xmlns:xlink="http://www.w3.org/1999/xlink" width="100%" height="100%" viewBox="0 0 310 160"><defs><style type="text/css">svg{font-size:15px;font-family:sans-serif}.axis,.tickMark{stroke:#000;stroke-width:1.2;fill:none;stroke-linecap:square}.curve,.dotted{fill:none;stroke:#00f;stroke-width:3;stroke-linecap:round}.dotted{stroke-width:1.5;stroke-dasharray:2 6}.filledEndPoint{fill:#00f;stroke:none}.openEndPoint{fill:none;stroke:#00f;stroke-width:1.5}.graphBackground{stroke:none;fill:#fff}.circleKnockout{fill:#555;stroke:none}.axisValue{fill:gray}.axisValue.vert{text-anchor:end}.axisValue.horz,.paramLabel{text-anchor:middle}.paramLabel{font-size:15px}</style><g id="graph" font-size="10"><rect width="100" height="100" y="-100" class="graphBackground"/><line y2="-100" class="axis"/><line x2="-5" y1="-50" y2="-50" class="tickMark"/><line x2="-5" y1="-100" y2="-100" class="tickMark"/><text x="-9" y="-50" class="axisValue vert" dy=".3em">0.5</text><text x="-9" y="-100" class="axisValue vert" dy=".3em">1</text><line x2="100" class="axis"/><line x1="50" x2="50" y2="5" class="tickMark"/><line x1="100" x2="100" y2="5" class="tickMark"/><text x="50" y="7.5" class="axisValue horz" dy="1.1em">0.5</text><text x="100" y="7.5" class="axisValue horz" dy="1.1em">1</text><text x="-.5em" y="1em" class="axisValue" text-anchor="end">0</text></g></defs><g><g transform="translate(30 110)"><defs><mask id="frames2GridMask" width="135" height="135" x="-30" y="-110" maskUnits="userSpaceOnUse"><rect width="100%" height="100%" x="-30" y="-110" fill="#fff"/><circle cx="50" r="3" class="circleKnockout"/></mask><mask id="frames2LineMask"><rect width="110" height="110" x="-5" y="-105" fill="#fff"/><circle cx="50" r="3" fill="#000"/><circle cx="100" cy="-100" r="3" fill="#000"/></mask></defs><use mask="url(#frames2GridMask)" xlink:href="#graph"/><g mask="url(#frames2LineMask)"><path d="M0 0h50m0-100h50" class="curve"/><path d="M50 0v-100" class="dotted"/></g><circle r="3.5" class="filledEndPoint"/><circle cx="50" r="3" class="openEndPoint"/><circle cx="50" cy="-100" r="3.5" class="filledEndPoint"/><circle cx="100" cy="-100" r="3.5" class="filledEndPoint"/><text x="50" y="40" class="paramLabel">frames(2)</text></g><g transform="translate(30 110) translate(170 0)"><defs><mask id="frames4GridMask" width="135" height="135" x="-30" y="-110" maskUnits="userSpaceOnUse"><rect width="100%" height="100%" x="-30" y="-110" fill="#fff"/><circle cx="25" r="3" class="circleKnockout"/></mask><mask id="frames4LineMask"><rect width="110" height="110" x="-5" y="-105" fill="#fff"/><circle cx="25" r="3" fill="#000"/><circle cx="50" cy="-33.3" r="3" fill="#000"/><circle cx="75" cy="-66.6" r="3" fill="#000"/><circle cx="100" cy="-100" r="3" fill="#000"/></mask></defs><use mask="url(#frames4GridMask)" xlink:href="#graph"/><g mask="url(#frames4LineMask)"><path d="M0 0h25m0-33.3h25m0-33.3h25m0-33.3h25" class="curve"/><path d="M25 0v-33.3m25 0v-33.3m25 0v-33.3" class="dotted"/></g><circle r="3.5" class="filledEndPoint"/><circle cx="25" r="3" class="openEndPoint"/><circle cx="25" cy="-33.3" r="3.5" class="filledEndPoint"/><circle cx="50" cy="-33.3" r="3" class="openEndPoint"/><circle cx="50" cy="-66.6" r="3.5" class="filledEndPoint"/><circle cx="75" cy="-66.6" r="3" class="openEndPoint"/><circle cx="75" cy="-100" r="3.5" class="filledEndPoint"/><circle cx="100" cy="-100" r="3.5" class="filledEndPoint"/><text x="50" y="40" class="paramLabel">frames(4)</text></g></g></svg>