<svg xmlns="http://www.w3.org/2000/svg" xmlns:svg="http://www.w3.org/2000/svg" id="svg2" width="640" height="220" version="1.0"><defs id="defs4"><marker id="Arrow1Mend" orient="auto" overflow="visible" refX="0" refY="0"><path id="path3274" fill-rule="nonzero" stroke="#000" stroke-width="1pt" marker-start="none" d="M 0,0 L 5,-5 L -12.5,0 L 5,5 L 0,0 z" transform="matrix(-0.4,0,0,-0.4,-4,0)"/></marker><marker id="Arrow1Mstart" orient="auto" overflow="visible" refX="0" refY="0"><path id="path3271" fill-rule="evenodd" stroke="#000" stroke-width="1pt" marker-start="none" d="M 0,0 L 5,-5 L -12.5,0 L 5,5 L 0,0 z" transform="matrix(0.4,0,0,0.4,4,0)"/></marker><marker id="Arrow1Sstart" orient="auto" overflow="visible" refX="0" refY="0"><path id="path3277" fill-rule="evenodd" stroke="#000" stroke-width="1pt" marker-start="none" d="M 0,0 L 5,-5 L -12.5,0 L 5,5 L 0,0 z" transform="matrix(0.2,0,0,0.2,1.2,0)"/></marker><marker id="Arrow1Lstart" orient="auto" overflow="visible" refX="0" refY="0"><path id="path3265" fill-rule="evenodd" stroke="#000" stroke-width="1pt" marker-start="none" d="M 0,0 L 5,-5 L -12.5,0 L 5,5 L 0,0 z" transform="matrix(0.8,0,0,0.8,10,0)"/></marker></defs><metadata id="metadata7"/><g id="layer1"><text id="text3207" x="71.797" y="40.34" fill="#000" fill-opacity="1" stroke="none" stroke-linecap="butt" stroke-linejoin="miter" stroke-opacity="1" stroke-width="1" font-family="DejaVu Sans" font-size="24" font-stretch="normal" font-style="normal" font-variant="normal" font-weight="normal" xml:space="preserve" style="-inkscape-font-specification:DejaVu Sans"><tspan id="tspan3209" x="71.797" y="40.34">A</tspan></text><text id="text3211" x="231.439" y="40.34" fill="#000" fill-opacity="1" stroke="none" stroke-linecap="butt" stroke-linejoin="miter" stroke-opacity="1" stroke-width="1" font-family="DejaVu Sans" font-size="24" font-stretch="normal" font-style="normal" font-variant="normal" font-weight="normal" xml:space="preserve" style="-inkscape-font-specification:DejaVu Sans"><tspan id="tspan3213" x="231.439" y="40.34">B</tspan></text><text id="text3215" x="391.598" y="40" fill="#000" fill-opacity="1" stroke="none" stroke-linecap="butt" stroke-linejoin="miter" stroke-opacity="1" stroke-width="1" font-family="DejaVu Sans" font-size="24" font-stretch="normal" font-style="normal" font-variant="normal" font-weight="normal" xml:space="preserve" style="-inkscape-font-specification:DejaVu Sans"><tspan id="tspan3217" x="391.598" y="40">C</tspan></text><text id="text3219" x="550.291" y="40.34" fill="#000" fill-opacity="1" stroke="none" stroke-linecap="butt" stroke-linejoin="miter" stroke-opacity="1" stroke-width="1" font-family="DejaVu Sans" font-size="24" font-stretch="normal" font-style="normal" font-variant="normal" font-weight="normal" xml:space="preserve" style="-inkscape-font-specification:DejaVu Sans"><tspan id="tspan3221" x="550.291" y="40.34">D</tspan></text><path id="path2385" fill="#3dbe4d" fill-opacity="1" stroke="none" stroke-dasharray="none" stroke-miterlimit="4" stroke-opacity="1" stroke-width="1" d="M 20,160 C 20,160 40,160 40,160 C 40.000002,148.96 66.880002,140 100,140 C 100,140 100,120 100,120 C 55.840002,120 20.000002,137.92 20,160 z"/><rect id="rect3181" width="20" height="40" x="20" y="160" fill="silver" fill-opacity="1" stroke="none" stroke-dasharray="none" stroke-miterlimit="4" stroke-opacity="1" stroke-width="1"/><rect id="rect3183" width="40" height="20" x="100" y="120" fill="silver" fill-opacity="1" stroke="none" stroke-dasharray="none" stroke-miterlimit="4" stroke-opacity="1" stroke-width="1"/><path id="path3258" fill="none" fill-opacity=".475" stroke="#000" stroke-dasharray="none" stroke-dashoffset="0" stroke-linecap="square" stroke-linejoin="bevel" stroke-miterlimit="4" stroke-opacity="1" stroke-width="1.019" d="M 20,59.999998 A 80,40 0 0 1 100,20" transform="matrix(0.9875,0,0,0.975,0.7500004,101)"/><path id="path3260" fill="none" fill-rule="evenodd" stroke="#000" stroke-linecap="butt" stroke-linejoin="miter" stroke-opacity="1" stroke-width="1" marker-end="url(#Arrow1Mend)" marker-start="url(#Arrow1Mstart)" d="M 100,121.9044 L 100,160 L 21.904402,160"/><flowRoot id="flowRoot3223" fill="#000" fill-opacity="1" stroke="none" stroke-linecap="butt" stroke-linejoin="miter" stroke-opacity="1" stroke-width="1" font-family="Bitstream Vera Sans" font-size="10" font-style="normal" font-weight="normal" transform="translate(-1.6396484,-62.369835)" xml:space="preserve"><flowRegion id="flowRegion3225"><rect id="rect3227" width="119" height="59" x="21" y="120" font-size="10"/></flowRegion><flowPara style="-inkscape-font-specification:DejaVu Sans Mono" id="flowPara3229" font-family="DejaVu Sans Mono" font-stretch="normal" font-style="normal" font-variant="normal" font-weight="normal">border-width: 20px;</flowPara><flowPara style="-inkscape-font-specification:DejaVu Sans Mono" id="flowPara3231" font-family="DejaVu Sans Mono" font-stretch="normal" font-style="normal" font-variant="normal" font-weight="normal">border-radius: 80px / 40px;</flowPara></flowRoot><rect id="rect3212" width="20" height="20" x="180" y="180" fill="silver" fill-opacity="1" stroke="none" stroke-dasharray="none" stroke-miterlimit="4" stroke-opacity="1" stroke-width="1"/><rect id="rect3214" width="39.5" height="39.5" x="260" y="120" fill="silver" fill-opacity="1" stroke="none"/><path id="path3225" fill="#3dbe4d" fill-opacity="1" stroke="none" stroke-dasharray="4 4" stroke-dashoffset="0" stroke-miterlimit="4" stroke-opacity="1" stroke-width="1" d="m 180,180 c 0,0 20,0 20,0 0,-20.5061 60,-20.5 60,-20.5 0,0 0,-39.5 0,-39.5 -44.16,0 -80,26.88 -80,60 z"/><path id="path5629" fill="none" fill-opacity="1" stroke="#000" stroke-dasharray="none" stroke-dashoffset="0" stroke-linecap="square" stroke-linejoin="bevel" stroke-miterlimit="4" stroke-opacity="1" stroke-width="1.015" d="M 180,79.999997 A 80,60 0 0 1 260,20" transform="matrix(0.9875,0,0,0.9833334,2.7500035,100.83333)"/><path id="path5631" fill="none" fill-rule="evenodd" stroke="#000" stroke-linecap="butt" stroke-linejoin="miter" stroke-opacity="1" stroke-width="1" marker-end="url(#Arrow1Mend)" marker-start="url(#Arrow1Mstart)" d="M 260,121.91658 L 260,180 L 181.9044,180"/><flowRoot id="flowRoot3233" fill="#000" fill-opacity="1" stroke="none" font-family="Bitstream Vera Sans" font-size="10" font-style="normal" font-weight="normal" transform="translate(158.36035,-62.369835)" xml:space="preserve"><flowRegion id="flowRegion3235"><rect id="rect3237" width="119" height="59" x="21" y="120" font-size="10"/></flowRegion><flowPara id="flowPara3239" font-family="DejaVu Sans Mono" font-stretch="normal" font-style="normal" font-variant="normal" font-weight="normal" style="-inkscape-font-specification:DejaVu Sans Mono">border-width:</flowPara><flowPara id="flowPara2990" font-family="DejaVu Sans Mono" font-stretch="normal" font-style="normal" font-variant="normal" font-weight="normal" style="-inkscape-font-specification:DejaVu Sans Mono">40px 20px;</flowPara><flowPara id="flowPara3241" font-family="DejaVu Sans Mono" font-stretch="normal" font-style="normal" font-variant="normal" font-weight="normal" style="-inkscape-font-specification:DejaVu Sans Mono">border-radius: 80px / 60px;</flowPara></flowRoot><path id="path3192" fill="#3dbe4d" fill-opacity="1" stroke="none" stroke-dasharray="none" stroke-miterlimit="4" stroke-opacity="1" stroke-width="1" d="M 339.99999,159.97748 L 420,160 C 420,160 419.99999,119.97748 419.99999,119.97748 C 375.83999,119.97748 339.99999,137.89748 339.99999,159.97748 z"/><rect id="rect3194" width="80" height="40" x="340" y="160" fill="silver" fill-opacity="1" stroke="none" stroke-dasharray="none" stroke-miterlimit="4" stroke-opacity="1" stroke-width="1"/><rect id="rect3196" width="40" height="40" x="420" y="120" fill="silver" fill-opacity="1" stroke="none" stroke-dasharray="none" stroke-miterlimit="4" stroke-opacity="1" stroke-width="1"/><path id="path5633" fill="none" fill-opacity="1" stroke="#000" stroke-dasharray="none" stroke-dashoffset="0" stroke-linecap="square" stroke-linejoin="bevel" stroke-miterlimit="4" stroke-opacity="1" stroke-width="1.019" d="M 170,69.999998 A 80,40 0 0 1 250,30" transform="matrix(0.9875,0,0,0.975,172.625,91.249999)"/><path id="path5637" fill="none" fill-rule="evenodd" stroke="#000" stroke-linecap="butt" stroke-linejoin="miter" stroke-opacity="1" stroke-width="1" marker-end="url(#Arrow1Mend)" marker-start="url(#Arrow1Mstart)" d="M 420,121.91658 L 420,160 L 341.94894,159.99197"/><flowRoot id="flowRoot3243" fill="#000" fill-opacity="1" stroke="none" stroke-linecap="butt" stroke-linejoin="miter" stroke-opacity="1" stroke-width="1" font-family="Bitstream Vera Sans" font-size="10" font-style="normal" font-weight="normal" transform="translate(318.50195,-62.369835)" xml:space="preserve"><flowRegion id="flowRegion3245"><rect id="rect3247" width="100.64" height="62.37" x="21" y="120" font-size="10"/></flowRegion><flowPara style="-inkscape-font-specification:DejaVu Sans Mono" id="flowPara3249" font-family="DejaVu Sans Mono" font-stretch="normal" font-style="normal" font-variant="normal" font-weight="normal">border-width: 40px 80px;</flowPara><flowPara style="-inkscape-font-specification:DejaVu Sans Mono" id="flowPara3251" font-family="DejaVu Sans Mono" font-stretch="normal" font-style="normal" font-variant="normal" font-weight="normal">border-radius: 80px / 40px;</flowPara></flowRoot><rect id="rect3162" width="40" height="60" x="580" y="120" fill="silver" fill-opacity="1" stroke="none" stroke-dasharray="4 4" stroke-dashoffset="0" stroke-miterlimit="4" stroke-opacity="1" stroke-width="1"/><path id="rect3195" fill="#3dbe4d" fill-opacity="1" stroke="none" stroke-miterlimit="4" stroke-opacity="1" stroke-width="1" d="m 580,120 0,60 -30,0 30,-60 z"/><rect id="rect3164" width="50" height="20" x="500" y="180" fill="silver" fill-opacity="1" stroke="none"/><path id="rect2412" fill="#3dbe4d" fill-opacity="1" stroke="none" stroke-miterlimit="4" stroke-opacity="1" stroke-width="1" d="m 500,160 50,20 -50,0 0,-20 z"/><path id="path2410" fill="#26782f" fill-opacity="1" stroke="none" stroke-dasharray="none" stroke-miterlimit="4" stroke-opacity="1" stroke-width="1" d="M 499.99999,159.97748 550,180 c 0,0 29.99999,-60.02252 29.99999,-60.02252 -44.16,0 -80,17.92 -80,40 z"/><path id="path2408" fill="none" fill-opacity="1" stroke="#000" stroke-dasharray="none" stroke-dashoffset="0" stroke-linecap="square" stroke-linejoin="bevel" stroke-miterlimit="4" stroke-opacity="1" stroke-width="1.019" d="M 170,69.999998 A 80,40 0 0 1 250,30" transform="matrix(0.9875,0,0,0.975,332.625,91.250002)"/><path id="path2411" fill="none" fill-rule="evenodd" stroke="#000" stroke-linecap="butt" stroke-linejoin="miter" stroke-opacity="1" stroke-width="1" marker-end="url(#Arrow1Mend)" marker-start="url(#Arrow1Mstart)" d="M 580,121.91658 L 580,160 L 501.94894,159.99197"/><flowRoot id="flowRoot3253" fill="#000" fill-opacity="1" stroke="none" font-family="Bitstream Vera Sans" font-size="10" font-style="normal" font-weight="normal" transform="translate(478.36035,-62.369835)" xml:space="preserve"><flowRegion id="flowRegion3255"><rect id="rect3257" width="119.498" height="53.87" x="21" y="120" font-size="10"/></flowRegion><flowPara id="flowPara3259" font-family="DejaVu Sans Mono" font-stretch="normal" font-style="normal" font-variant="normal" font-weight="normal" style="-inkscape-font-specification:DejaVu Sans Mono">border-width:</flowPara><flowPara id="flowPara2988" font-family="DejaVu Sans Mono" font-stretch="normal" font-style="normal" font-variant="normal" font-weight="normal" style="-inkscape-font-specification:DejaVu Sans Mono">60px 40px;</flowPara><flowPara id="flowPara3261" font-family="DejaVu Sans Mono" font-stretch="normal" font-style="normal" font-variant="normal" font-weight="normal" style="-inkscape-font-specification:DejaVu Sans Mono">border-radius: 80px / 40px;</flowPara></flowRoot></g></svg>